<svg width="31" height="32" viewBox="0 0 31 32" fill="none" xmlns="http://www.w3.org/2000/svg">
<rect width="31" height="32" rx="15.5" fill="url(#paint0_linear_2013_14)"/>
<g opacity="0.5" filter="url(#filter0_f_2013_14)">
<circle cx="15.5" cy="16" r="11.1878" fill="#8456FE"/>
<circle cx="15.5" cy="16" r="11.0878" stroke="url(#paint1_linear_2013_14)" stroke-width="0.2"/>
</g>
<path d="M14.5 8H16.5V20H18.5V22H16.5V24H14.5V22H12.5V20H14.5V8ZM10.5 18V20H12.5V18H10.5ZM10.5 18V16H8.5V18H10.5ZM20.5 18V20H18.5V18H20.5ZM20.5 18V16H22.5V18H20.5Z" fill="#FAFAFA"/>
<defs>
<filter id="filter0_f_2013_14" x="0.312134" y="0.812164" width="30.3756" height="30.3757" filterUnits="userSpaceOnUse" color-interpolation-filters="sRGB">
<feFlood flood-opacity="0" result="BackgroundImageFix"/>
<feBlend mode="normal" in="SourceGraphic" in2="BackgroundImageFix" result="shape"/>
<feGaussianBlur stdDeviation="2" result="effect1_foregroundBlur_2013_14"/>
</filter>
<linearGradient id="paint0_linear_2013_14" x1="7.66573" y1="1.58636" x2="19.4359" y2="21.5817" gradientUnits="userSpaceOnUse">
<stop stop-color="#8456FE"/>
<stop offset="1" stop-color="#4F3398" stop-opacity="0.5"/>
</linearGradient>
<linearGradient id="paint1_linear_2013_14" x1="15.5" y1="4.81216" x2="15.5" y2="27.1878" gradientUnits="userSpaceOnUse">
<stop stop-color="#9B76FF"/>
<stop offset="1" stop-color="#8659FF"/>
</linearGradient>
</defs>
</svg>
