<svg width="640" height="239" viewBox="0 0 640 239" fill="none" xmlns="http://www.w3.org/2000/svg">
<path d="M262.5 161.9C262.5 159.835 256.982 158.027 248.716 157.022C254.362 158.052 257.995 159.534 257.995 160.778C257.995 162.813 248.296 164.484 235.927 164.66L233.75 115L231.573 164.66C219.204 164.484 209.505 162.813 209.505 160.778C209.505 159.534 213.135 158.052 218.784 157.022C210.518 158.024 205 159.835 205 161.9C205 164.907 216.699 167.37 231.547 167.595L233.75 222L235.953 167.595C250.798 167.37 262.5 164.907 262.5 161.9Z" fill="#999999"/>
<path d="M435.336 164.51C433.949 164.257 432.493 164.023 430.988 163.804L435.339 162.636L422.608 159.212L419.18 146.5L415.752 159.212L406.081 161.812C403.431 161.737 400.732 161.699 398 161.699C383.906 161.699 370.644 162.697 360.664 164.51C349.939 166.458 344.5 169.037 344.5 172.177C344.5 175.317 349.939 177.896 360.664 179.845C362.631 180.203 364.731 180.527 366.935 180.818L372.534 182.323L374.874 191L377.214 182.323L378.498 181.979C384.625 182.421 391.213 182.655 398 182.655C412.094 182.655 425.356 181.657 435.336 179.845C446.061 177.896 451.5 175.317 451.5 172.177C451.5 169.037 446.061 166.458 435.336 164.51ZM398 180.787C393.09 180.787 388.473 180.668 384.169 180.455L385.901 179.989L377.209 177.652L374.869 168.973L372.528 177.652L367.518 178.998C354.006 177.212 346.366 174.419 346.366 172.177C346.366 168.581 366.007 163.57 397.997 163.57C401.124 163.57 404.127 163.619 407.011 163.709L415.749 166.059L419.177 178.771L422.605 166.059L426.25 165.078C441.146 166.841 449.629 169.814 449.629 172.177C449.629 175.773 429.988 180.787 398 180.787Z" fill="#999999"/>
<path d="M122.049 186.994C121.987 186.941 121.921 186.893 121.842 186.86L103.529 179.11L102.561 168.008C102.457 166.812 101.549 166.158 100.643 166.074L41.4623 141.032C41.0699 140.687 40.5635 140.507 40.0713 140.5C40.0475 140.5 40.0261 140.5 40.0047 140.502C39.0513 140.522 38.0432 141.188 37.9338 142.45L36.481 159.091C36.4549 159.376 36.2337 159.601 35.9508 159.625L19.4354 161.089C18.1634 161.202 17.5 162.246 17.5 163.219C17.5 163.969 17.8971 164.754 18.6603 165.131C18.7245 165.19 18.7982 165.243 18.8838 165.279L36.9708 172.933L37.9361 183.99C38.0408 185.185 38.949 185.839 39.8549 185.923L99.0425 210.971C99.4396 211.318 99.9532 211.5 100.45 211.5C101.415 211.5 102.452 210.829 102.564 209.55L104.017 192.907C104.029 192.773 104.086 192.655 104.171 192.564C104.19 192.547 104.212 192.533 104.228 192.514C104.316 192.44 104.426 192.384 104.549 192.372L121.065 190.909C122.337 190.796 123 189.752 123 188.779C122.993 188.106 122.667 187.404 122.049 186.994ZM100.41 167.605V167.61C100.422 167.61 100.436 167.608 100.445 167.608C100.571 167.608 100.983 167.646 101.028 168.144L101.927 178.432L61.4419 161.3C61.4086 161.285 61.3753 161.278 61.3397 161.269C61.1352 161.18 60.9117 161.11 60.6573 161.089L44.1419 159.625C43.8589 159.599 43.6355 159.376 43.6117 159.091L42.2112 143.03L100.151 167.548C100.234 167.584 100.322 167.601 100.41 167.605ZM23.9625 165.751L35.9484 166.812C36.2314 166.839 36.4549 167.061 36.4786 167.347L36.8139 171.189L23.9625 165.751ZM38.0099 167.21C37.9195 166.175 37.1087 165.358 36.0816 165.267L19.5662 163.803C19.0716 163.76 19.0336 163.343 19.0336 163.216C19.0336 163.089 19.0716 162.675 19.5662 162.629L36.0816 161.166C37.1087 161.075 37.9195 160.258 38.0099 159.223L39.4626 142.58C39.4959 142.196 39.7479 142.086 39.9191 142.055L40.554 142.323C40.5896 142.393 40.6182 142.474 40.6277 142.58L42.0804 159.223C42.1708 160.258 42.9816 161.075 44.0087 161.166L60.5241 162.629C61.0187 162.673 61.0567 163.089 61.0567 163.216C61.0567 163.343 61.0187 163.758 60.5241 163.803L44.0087 165.267C42.9816 165.358 42.1708 166.175 42.0804 167.21L40.6277 183.853C40.5849 184.349 40.1759 184.39 40.0475 184.39C40.0452 184.39 40.0428 184.39 40.0404 184.39C39.9096 184.39 39.5054 184.347 39.4626 183.853L38.0099 167.21ZM101.028 209.413C100.995 209.797 100.743 209.907 100.571 209.938L41.769 185.056C41.9734 184.766 42.1209 184.416 42.1565 183.99L43.5998 167.452L102.547 192.396C102.514 192.519 102.493 192.643 102.481 192.773L101.028 209.413ZM120.924 189.366L104.409 190.83C104.083 190.858 103.784 190.966 103.517 191.124L45.7302 166.671L60.6573 165.349C61.8247 165.246 62.4738 164.357 62.5737 163.458L121.248 188.288C121.302 188.312 121.357 188.326 121.412 188.336L121.443 188.635C121.455 188.695 121.457 188.745 121.457 188.779C121.457 188.906 121.419 189.323 120.924 189.366Z" fill="#999999"/>
<path d="M573.96 66.778L570.031 24.4105L566.102 66.778L523.738 70.7033L566.102 74.6325L570.031 117L573.96 74.6325L616.328 70.7033L573.96 66.778Z" fill="#999999"/>
<path d="M595.963 58.4951L597.409 42.9009L613.007 41.4547L597.409 40.0085L595.963 24.4105L594.516 40.0085L578.918 41.4547L594.516 42.9009L595.963 58.4951Z" fill="#999999"/>
<path d="M541.421 83.5696L540.641 91.9942L532.216 92.7785L540.641 93.5589L541.421 101.983L542.202 93.5589L550.63 92.7785L542.202 91.9942L541.421 83.5696Z" fill="#999999"/>
<path d="M588.1 87.2043L587.32 78.7797L586.54 87.2043L578.111 87.9847L586.54 88.7652L587.32 97.1936L588.1 88.7652L596.529 87.9847L588.1 87.2043Z" fill="#999999"/>
<path d="M550.63 55.7443L551.411 47.3159L559.835 46.5354L551.411 45.755L550.63 37.3304L549.85 45.755L541.421 46.5354L549.85 47.3159L550.63 55.7443Z" fill="#999999"/>
<path d="M600.01 90.2803L599.23 98.7086L590.805 99.4891L599.23 100.27L600.01 108.694L600.795 100.27L609.219 99.4891L600.795 98.7086L600.01 90.2803Z" fill="#999999"/>
</svg>
